# xmcd
#
# Track frame offsets:
#	150
#	14968
#	28437
#	47608
#	63485
#	82181
#	95199
#	110785
#	119062
#	133717
#	144918
#	158613
#	171085
#	189072
#	201445
#
# Disc length: 2854 seconds
#
# Revision: 0
# Processed by: cddbd v1.5.2PL0 Copyright (c) Steve Scherf et al.
# Submitted via: EZCDAudioConverter 2.1.3.1
#
DISCID=e40b240f
DTITLE=Carolina Crossing - Volume #2
DYEAR=2014
DGENRE=Bluegrass
TTITLE0=Carolina Crossing - California Cottonfields
TTITLE1=Carolina Crossing - Windy City
TTITLE2=Carolina Crossing - City Of New Orleans
TTITLE3=Carolina Crossing - Poor Old Man
TTITLE4=Carolina Crossing - Dark as A Dungeon
TTITLE5=Carolina Crossing - Little Sadie
TTITLE6=Carolina Crossing - Nellie Cane
TTITLE7=Carolina Crossing - I'll Wear A White Robe
TTITLE8=Carolina Crossing - I've Just Seen The Rock Of Ages
TTITLE9=Carolina Crossing - Pick Briches
TTITLE10=Carolina Crossing - Goin' Home
TTITLE11=Unknown artist - The Grass That I Am Playing Blue
TTITLE12=Carolina Crossing - Long Black Veil
TTITLE13=Carolina Crossing - Roving Gambler
TTITLE14=Unknown artist - Carolina Crossing
EXTD=
EXTT0=
EXTT1=
EXTT2=
EXTT3=
EXTT4=
EXTT5=
EXTT6=
EXTT7=
EXTT8=
EXTT9=
EXTT10=
EXTT11=
EXTT12=
EXTT13=
EXTT14=
PLAYORDER=
